<?xml version="1.0" standalone="no"?><!DOCTYPE svg PUBLIC "-//W3C//DTD SVG 1.1//EN" "http://www.w3.org/Graphics/SVG/1.1/DTD/svg11.dtd"><svg class="icon" width="128px" height="128.00px" viewBox="0 0 1024 1024" version="1.1" xmlns="http://www.w3.org/2000/svg"><path d="M783.175625 828.588125c-7.198125 0-14.3953125-2.7459375-19.8871875-8.2378125L446.343125 503.4059375c-10.9828125-10.98375-10.9828125-28.7915625 0-39.7753125 10.9828125-10.9828125 28.790625-10.98375 39.774375 0l316.944375 316.9453125c10.98375 10.98375 10.98375 28.7915625 0 39.774375-5.4909375 5.4928125-12.688125 8.2378125-19.88625 8.2378125z" fill="#f2be45" /><path d="M588.9003125 777.175625h-358.10625v-467.90625h53.754375c12.9440625 0 23.4375-10.4934375 23.4375-23.4375s-10.4934375-23.4375-23.4375-23.4375h-77.1928125c-12.9440625 0-23.4375 10.4934375-23.4375 23.4375l0.0009375 0.0365625v514.745625c0 12.9440625 10.4934375 23.4375 23.4375 23.4375h381.54375c12.9440625 0 23.4375-10.4934375 23.4375-23.4375 0-12.945-10.4934375-23.4384375-23.4375-23.4384375zM838.7928125 283.435625c-1.2-11.818125-11.1815625-21.04125-23.3165625-21.04125H738.284375c-12.9440625 0-23.4375 10.4934375-23.4375 23.4375s10.4934375 23.4375 23.4375 23.4375h53.754375v372.7190625c0 12.945 10.4925 23.4375 23.4375 23.4375s23.4375-10.4925 23.4375-23.4375V285.831875c0-0.8090625-0.04125-1.60875-0.1209375-2.39625zM600.250625 262.394375H422.5821875c-12.9440625 0-23.4375 10.4934375-23.4375 23.4375s10.4934375 23.4375 23.4375 23.4375h177.6684375c12.945 0 23.4375-10.4934375 23.4375-23.4375s-10.4934375-23.4375-23.4375-23.4375z" fill="#f2be45" /><path d="M353.4725 374.6684375c12.9440625 0 23.4375-10.4934375 23.4375-23.4375V219.4409375c0-12.9440625-10.4934375-23.4375-23.4375-23.4375s-23.4375 10.4934375-23.4375 23.4375v131.79c0 12.9440625 10.4934375 23.4375 23.4375 23.4375zM669.5975 196.0034375c-12.9440625 0-23.4375 10.4934375-23.4375 23.4375v131.79c0 12.9440625 10.4934375 23.4375 23.4375 23.4375s23.4375-10.4934375 23.4375-23.4375V219.4409375c0-12.945-10.494375-23.4375-23.4375-23.4375z" fill="#f2be45" /></svg>