<svg id="图层_1" data-name="图层 1" xmlns="http://www.w3.org/2000/svg" xmlns:xlink="http://www.w3.org/1999/xlink" viewBox="0 0 183.59 158.42"><defs><style>.cls-1{fill:none;}.cls-2{fill:#f2be45;}.cls-3{clip-path:url(#clip-path);}.cls-4{fill:#050505;}</style><clipPath id="clip-path" transform="translate(-8.21 -19.08)"><rect class="cls-1" x="8.24" y="19" width="183.64" height="158.76"/></clipPath></defs><title>首页</title><path class="cls-2" d="M109.27,77.45,63.8,113.91v47.64c0,5,4.91,9.1,11,9.1h76.45c6,0,11-4.06,11-9.1V113.91L116.73,77.45a6.27,6.27,0,0,0-7.46,0Zm0,0" transform="translate(-8.21 -19.08)"/><g class="cls-3"><path d="M120.2,177.5H77.07V115.57a17.53,17.53,0,0,1,17.51-17.5h9.07a16.58,16.58,0,0,1,16.57,16.57V177.5Zm-35.72-7.41h28.31V114.64a9.16,9.16,0,0,0-9.16-9.16H94.55a10.08,10.08,0,0,0-10.07,10.07ZM163.33,67.75" transform="translate(-8.21 -19.08)"/><path class="cls-4" d="M22.55,112.44a14.78,14.78,0,0,1-10.13-3.76A13,13,0,0,1,8.21,99,17,17,0,0,1,14,86.7l73.6-62.56a19.52,19.52,0,0,1,3-2.24,14.8,14.8,0,0,1,9.4-2.81,14.78,14.78,0,0,1,9.4,2.81,19.43,19.43,0,0,1,3.13,2.33L186,86.7A16.89,16.89,0,0,1,191.79,99a12.94,12.94,0,0,1-4.21,9.68c-6,5.51-16.14,4.88-23.06-1.45L104.32,56a6.64,6.64,0,0,0-8.62,0l-60.33,51.3a19.22,19.22,0,0,1-12.82,5.1Zm77-85.94a7.69,7.69,0,0,0-4.67,1.42l-.37.24a11.73,11.73,0,0,0-2.07,1.54L18.88,92.25A9.49,9.49,0,0,0,15.62,99a5.49,5.49,0,0,0,1.79,4.19c3.11,2.85,9.08,2.18,13.05-1.45L90.9,50.35a14,14,0,0,1,18.22,0l60.35,51.3c4.06,3.72,10.05,4.37,13.16,1.54A5.52,5.52,0,0,0,184.42,99a9.46,9.46,0,0,0-3.32-6.79L107.65,29.78a14.31,14.31,0,0,0-2.18-1.62l-.37-.24a7.75,7.75,0,0,0-5-1.42Zm0,0" transform="translate(-8.21 -19.08)"/></g><path class="cls-4" d="M149.74,177.44H50.28c-9.92,0-18-7-18-15.54V100l60.57-50.5a11.85,11.85,0,0,1,14.24,0L167.68,100V161.9c0,8.58-8,15.54-17.94,15.54Zm-110-73.93v58.41c0,4.47,4.73,8.13,10.55,8.13h99.46c5.82,0,10.55-3.66,10.55-8.13V103.51L102.48,55.32a4.5,4.5,0,0,0-5,0Zm0,0" transform="translate(-8.21 -19.08)"/></svg>