<?xml version="1.0" standalone="no"?><!DOCTYPE svg PUBLIC "-//W3C//DTD SVG 1.1//EN" "http://www.w3.org/Graphics/SVG/1.1/DTD/svg11.dtd"><svg class="icon" width="128px" height="128.00px" viewBox="0 0 1024 1024" version="1.1" xmlns="http://www.w3.org/2000/svg"><path d="M512 938.666667C276.352 938.666667 85.333333 747.648 85.333333 512S276.352 85.333333 512 85.333333s426.666667 191.018667 426.666667 426.666667-191.018667 426.666667-426.666667 426.666667z m79.701333-469.333334l65.109334-130.261333a42.666667 42.666667 0 0 0-76.288-38.144L512 437.888l-68.522667-136.96a42.666667 42.666667 0 0 0-76.288 38.144L432.298667 469.333333H426.666667a42.666667 42.666667 0 0 0 0 85.333334h42.666666v42.666666h-42.666666a42.666667 42.666667 0 0 0 0 85.333334h42.666666v42.666666a42.666667 42.666667 0 0 0 85.333334 0v-42.666666h42.666666a42.666667 42.666667 0 0 0 0-85.333334h-42.666666v-42.666666h42.666666a42.666667 42.666667 0 0 0 0-85.333334h-5.632z" fill="#8a8a8a" /></svg>