<?xml version="1.0" standalone="no"?><!DOCTYPE svg PUBLIC "-//W3C//DTD SVG 1.1//EN" "http://www.w3.org/Graphics/SVG/1.1/DTD/svg11.dtd"><svg class="icon" width="128px" height="127.50px" viewBox="0 0 1028 1024" version="1.1" xmlns="http://www.w3.org/2000/svg"><path d="M525.334073 0.001025l-521.738828 523.208492-3.595244 3.605493 497.730221 493.63689 3.572697 3.545026 524.36967-519.707536 1.503484-1.491186 0-502.797179L525.334073 0.001025zM953.73593 73.631793l0 405.810645-453.04076 440.973939-397.717246-392.721004 450.993069-454.06358L953.73593 73.631793z" fill="#fff" /><path d="M794.314309 290.301634c37.259153 0 67.577886-30.315658 67.57891-67.575836-0.00205-37.265302-30.319757-67.58301-67.58301-67.58096-37.258128 0-67.573786 30.315658-67.58096 67.58096C726.731299 259.985976 757.049007 290.299584 794.314309 290.301634z" fill="#fff" /><path d="M360.813723 446.238697 327.85185 479.200569 414.694219 566.043963 331.018699 649.717434 378.000795 696.700555 461.67529 613.026059 548.969627 700.320396 581.932525 667.356474 494.638188 580.062137 525.901851 548.799499 613.197212 636.093836 646.159085 603.131963 578.996272 535.966075 803.785134 485.759738 749.981502 431.954057 542.891123 484.829156 595.766222 277.738776 541.957466 223.93207 491.753178 448.724007 425.040283 382.012136 392.078411 414.974009 478.92078 501.815353 447.656092 533.080041Z" fill="#fff" /></svg>